<?xml version="1.0" ?>
<svg baseProfile="full" height="247px" version="1.1" viewBox="-47.7859685037 18.7419013106 606.904956945 249.238531761" width="600px" xmlns="http://www.w3.org/2000/svg" xmlns:ev="http://www.w3.org/2001/xml-events" xmlns:xlink="http://www.w3.org/1999/xlink">
	<defs/>
	<path d="M 503.239491889,160.0 C 503.239491889,160.0 499.0,158.892373992 494.0,157.649996159" fill="none" stroke="#000000" stroke-width="0.505333019938"/>
	<path d="M 494.0,157.649996159 C 494.0,157.649996159 490.0,156.353828493 486.0,155.666501366" fill="none" stroke="#000000" stroke-width="0.505333019938"/>
	<path d="M 486.0,155.666501366 C 486.0,155.666501366 485.0,153.584922373 480.0,153.115207265" fill="none" stroke="#000000" stroke-width="0.505333019938"/>
	<path d="M 480.0,153.115207265 C 480.0,153.115207265 476.25335599,152.0 473.316023855,151.0" fill="none" stroke="#000000" stroke-width="0.505333019938"/>
	<path d="M 473.316023855,151.0 C 473.316023855,151.0 469.0,149.666015491 465.0,148.42187386" fill="none" stroke="#000000" stroke-width="0.505333019938"/>
	<path d="M 465.0,148.42187386 C 465.0,148.42187386 462.0,147.660589035 458.0,151.603723054" fill="none" stroke="#000000" stroke-width="0.505333019938"/>
	<path d="M 458.0,151.603723054 C 458.0,151.603723054 454.466816637,158.0 451.898456606,164.0" fill="none" stroke="#000000" stroke-width="0.505333019938"/>
	<path d="M 451.898456606,164.0 C 451.898456606,164.0 451.644224333,174.0 452.40529029,182.0" fill="none" stroke="#000000" stroke-width="0.505333019938"/>
	<path d="M 452.40529029,182.0 C 452.40529029,182.0 471.0,193.033323879 466.0,193.053490976" fill="none" stroke="#000000" stroke-width="0.505333019938"/>
	<path d="M 466.0,193.053490976 C 466.0,193.053490976 463.0,191.449647363 459.0,190.425271412" fill="none" stroke="#000000" stroke-width="0.505333019938"/>
	<path d="M 459.0,190.425271412 C 459.0,190.425271412 455.0,189.423144853 451.793035217,189.0" fill="none" stroke="#000000" stroke-width="0.505333019938"/>
	<path d="M 451.793035217,189.0 C 451.793035217,189.0 449.0,192.538305083 446.273958647,196.0" fill="none" stroke="#000000" stroke-width="0.505333019938"/>
	<path d="M 446.273958647,196.0 C 446.273958647,196.0 444.0,195.341719063 449.348004619,182.0" fill="none" stroke="#000000" stroke-width="0.505333019938"/>
	<path d="M 449.348004619,182.0 C 449.348004619,182.0 449.319242154,175.0 449.30031383,168.0" fill="none" stroke="#000000" stroke-width="0.505333019938"/>
	<path d="M 449.30031383,168.0 C 449.30031383,168.0 448.0,163.893152204 444.351883844,162.0" fill="none" stroke="#000000" stroke-width="0.505333019938"/>
	<path d="M 444.351883844,162.0 C 444.351883844,162.0 441.0,160.781313078 451.0,157.264556727" fill="none" stroke="#000000" stroke-width="0.505333019938"/>
	<path d="M 451.0,157.264556727 C 451.0,157.264556727 455.560524786,150.0 458.324888377,144.0" fill="none" stroke="#000000" stroke-width="0.505333019938"/>
	<path d="M 458.324888377,144.0 C 458.324888377,144.0 459.377251305,139.0 459.32118423,134.0" fill="none" stroke="#000000" stroke-width="0.505333019938"/>
	<path d="M 459.32118423,134.0 C 459.32118423,134.0 459.394479377,130.0 460.0,125.211875247" fill="none" stroke="#000000" stroke-width="0.505333019938"/>
	<path d="M 460.0,125.211875247 C 460.0,125.211875247 460.347290545,121.0 460.325941562,117.0" fill="none" stroke="#000000" stroke-width="0.505333019938"/>
	<path d="M 460.325941562,117.0 C 460.325941562,117.0 461.101371431,113.0 461.318609298,108.0" fill="none" stroke="#000000" stroke-width="0.505333019938"/>
	<path d="M 461.318609298,108.0 C 461.318609298,108.0 461.318994454,104.0 462.294161815,100.0" fill="none" stroke="#000000" stroke-width="0.505333019938"/>
	<path d="M 462.294161815,100.0 C 462.294161815,100.0 461.081608436,96.0 459.0,93.9046335402" fill="none" stroke="#000000" stroke-width="0.505333019938"/>
	<path d="M 459.0,93.9046335402 C 459.0,93.9046335402 456.0,91.7380520404 452.0,89.6795442397" fill="none" stroke="#000000" stroke-width="0.505333019938"/>
	<path d="M 452.0,89.6795442397 C 452.0,89.6795442397 448.181025541,88.0 444.189038221,87.0" fill="none" stroke="#000000" stroke-width="0.505333019938"/>
	<path d="M 444.189038221,87.0 C 444.189038221,87.0 439.0,86.6808519643 436.0,85.9024056638" fill="none" stroke="#000000" stroke-width="0.505333019938"/>
	<path d="M 436.0,85.9024056638 C 436.0,85.9024056638 431.0,85.681390702 426.0,85.7016787909" fill="none" stroke="#000000" stroke-width="0.505333019938"/>
	<path d="M 426.0,85.7016787909 C 426.0,85.7016787909 421.902946517,90.0 418.436181968,105.0" fill="none" stroke="#000000" stroke-width="0.505333019938"/>
	<path d="M 418.436181968,105.0 C 418.436181968,105.0 414.896505219,115.0 411.465784066,125.0" fill="none" stroke="#000000" stroke-width="0.505333019938"/>
	<path d="M 411.465784066,125.0 C 411.465784066,125.0 408.441034698,133.0 438.0,158.072198972" fill="none" stroke="#000000" stroke-width="0.505333019938"/>
	<path d="M 438.0,158.072198972 C 438.0,158.072198972 434.0,158.292120594 430.230014697,157.0" fill="none" stroke="#000000" stroke-width="0.505333019938"/>
	<path d="M 430.230014697,157.0 C 430.230014697,157.0 427.0,155.446065076 424.0,153.695383993" fill="none" stroke="#000000" stroke-width="0.505333019938"/>
	<path d="M 424.0,153.695383993 C 424.0,153.695383993 421.0,151.864514295 418.0,149.880666335" fill="none" stroke="#000000" stroke-width="0.505333019938"/>
	<path d="M 418.0,149.880666335 C 418.0,149.880666335 414.142431619,147.0 411.270382356,145.0" fill="none" stroke="#000000" stroke-width="0.505333019938"/>
	<path d="M 411.270382356,145.0 C 411.270382356,145.0 409.0,142.899062746 405.122563299,140.0" fill="none" stroke="#000000" stroke-width="0.505333019938"/>
	<path d="M 405.122563299,140.0 C 405.122563299,140.0 402.196118118,139.0 398.0,138.681393154" fill="none" stroke="#000000" stroke-width="0.505333019938"/>
	<path d="M 398.0,138.681393154 C 398.0,138.681393154 394.815888131,139.0 391.0,142.596437309" fill="none" stroke="#000000" stroke-width="0.505333019938"/>
	<path d="M 391.0,142.596437309 C 391.0,142.596437309 387.0,145.735857719 383.737560569,149.0" fill="none" stroke="#000000" stroke-width="0.505333019938"/>
	<path d="M 383.737560569,149.0 C 383.737560569,149.0 380.0,151.888429611 376.891757504,155.0" fill="none" stroke="#000000" stroke-width="0.505333019938"/>
	<path d="M 376.891757504,155.0 C 376.891757504,155.0 376.683410408,164.0 378.0,173.805746428" fill="none" stroke="#000000" stroke-width="0.505333019938"/>
	<path d="M 378.0,173.805746428 C 378.0,173.805746428 377.679745056,181.0 377.673395794,188.0" fill="none" stroke="#000000" stroke-width="0.505333019938"/>
	<path d="M 377.673395794,188.0 C 377.673395794,188.0 383.0,197.37992527 411.0,205.584235618" fill="none" stroke="#000000" stroke-width="0.505333019938"/>
	<path d="M 411.0,205.584235618 C 411.0,205.584235618 408.0,205.984308484 403.0,205.595619605" fill="none" stroke="#000000" stroke-width="0.505333019938"/>
	<path d="M 403.0,205.595619605 C 403.0,205.595619605 400.0,205.603159 396.0,205.338686154" fill="none" stroke="#000000" stroke-width="0.505333019938"/>
	<path d="M 396.0,205.338686154 C 396.0,205.338686154 392.0,204.888222654 388.88368572,206.0" fill="none" stroke="#000000" stroke-width="0.505333019938"/>
	<path d="M 388.88368572,206.0 C 388.88368572,206.0 386.126106892,204.0 383.0,199.943374443" fill="none" stroke="#000000" stroke-width="0.505333019938"/>
	<path d="M 383.0,199.943374443 C 383.0,199.943374443 379.156741902,197.0 376.0,194.901329066" fill="none" stroke="#000000" stroke-width="0.505333019938"/>
	<path d="M 376.0,194.901329066 C 376.0,194.901329066 372.0,194.600583665 368.0,195.351226447" fill="none" stroke="#000000" stroke-width="0.505333019938"/>
	<path d="M 368.0,195.351226447 C 368.0,195.351226447 365.0,196.073466864 361.0,197.57347744" fill="none" stroke="#000000" stroke-width="0.505333019938"/>
	<path d="M 361.0,197.57347744 C 361.0,197.57347744 358.0,198.419787701 354.0,199.582636088" fill="none" stroke="#000000" stroke-width="0.505333019938"/>
	<path d="M 354.0,199.582636088 C 354.0,199.582636088 350.0,200.665739075 347.0,201.889946793" fill="none" stroke="#000000" stroke-width="0.505333019938"/>
	<path d="M 347.0,201.889946793 C 347.0,201.889946793 343.0,203.425525757 340.0,204.231879073" fill="none" stroke="#000000" stroke-width="0.505333019938"/>
	<path d="M 340.0,204.231879073 C 340.0,204.231879073 336.0,205.690668468 333.0,206.054690846" fill="none" stroke="#000000" stroke-width="0.505333019938"/>
	<path d="M 333.0,206.054690846 C 333.0,206.054690846 329.0,206.169054076 325.305622918,207.0" fill="none" stroke="#000000" stroke-width="0.505333019938"/>
	<path d="M 325.305622918,207.0 C 325.305622918,207.0 324.0,209.196006125 320.868598383,208.0" fill="none" stroke="#000000" stroke-width="0.505333019938"/>
	<path d="M 320.868598383,208.0 C 320.868598383,208.0 318.0,206.057502494 315.0,205.574629604" fill="none" stroke="#000000" stroke-width="0.505333019938"/>
	<path d="M 315.0,205.574629604 C 315.0,205.574629604 315.392706737,198.0 313.50678911,192.0" fill="none" stroke="#000000" stroke-width="0.505333019938"/>
	<path d="M 313.50678911,192.0 C 313.50678911,192.0 312.0,188.371666346 316.656706946,195.0" fill="none" stroke="#000000" stroke-width="0.505333019938"/>
	<path d="M 316.656706946,195.0 C 316.656706946,195.0 321.0,204.476644362 375.336865863,186.0" fill="none" stroke="#000000" stroke-width="0.505333019938"/>
	<path d="M 375.336865863,186.0 C 375.336865863,186.0 375.320953662,178.0 375.319489203,171.0" fill="none" stroke="#000000" stroke-width="0.505333019938"/>
	<path d="M 375.319489203,171.0 C 375.319489203,171.0 374.342640354,165.0 373.327026992,159.0" fill="none" stroke="#000000" stroke-width="0.505333019938"/>
	<path d="M 373.327026992,159.0 C 373.327026992,159.0 371.0,155.468353549 367.198415214,154.0" fill="none" stroke="#000000" stroke-width="0.505333019938"/>
	<path d="M 367.198415214,154.0 C 367.198415214,154.0 364.238694203,153.0 360.0,151.252333334" fill="none" stroke="#000000" stroke-width="0.505333019938"/>
	<path d="M 360.0,151.252333334 C 360.0,151.252333334 357.0,150.224571556 383.0,145.546145539" fill="none" stroke="#000000" stroke-width="0.505333019938"/>
	<path d="M 383.0,145.546145539 C 383.0,145.546145539 391.0,136.8655001 389.0,132.794818221" fill="none" stroke="#000000" stroke-width="0.505333019938"/>
	<path d="M 389.0,132.794818221 C 389.0,132.794818221 386.560104533,129.0 384.297315409,125.0" fill="none" stroke="#000000" stroke-width="0.505333019938"/>
	<path d="M 384.297315409,125.0 C 384.297315409,125.0 382.549587089,122.0 380.283713749,118.0" fill="none" stroke="#000000" stroke-width="0.505333019938"/>
	<path d="M 380.283713749,118.0 C 380.283713749,118.0 378.321402433,114.0 377.105213155,110.0" fill="none" stroke="#000000" stroke-width="0.505333019938"/>
	<path d="M 377.105213155,110.0 C 377.105213155,110.0 375.567093439,107.0 374.300993874,102.0" fill="none" stroke="#000000" stroke-width="0.505333019938"/>
	<path d="M 374.300993874,102.0 C 374.300993874,102.0 373.301178329,98.0 372.301140231,94.0" fill="none" stroke="#000000" stroke-width="0.505333019938"/>
	<path d="M 372.301140231,94.0 C 372.301140231,94.0 371.31899216,90.0 370.320426543,85.0" fill="none" stroke="#000000" stroke-width="0.505333019938"/>
	<path d="M 370.320426543,85.0 C 370.320426543,85.0 369.0,81.882123609 365.0,80.4371349455" fill="none" stroke="#000000" stroke-width="0.505333019938"/>
	<path d="M 365.0,80.4371349455 C 365.0,80.4371349455 361.0,79.6813903004 357.18864683,79.0" fill="none" stroke="#000000" stroke-width="0.505333019938"/>
	<path d="M 357.18864683,79.0 C 357.18864683,79.0 354.0,78.6813934004 350.0,78.6810060995" fill="none" stroke="#000000" stroke-width="0.505333019938"/>
	<path d="M 350.0,78.6810060995 C 350.0,78.6810060995 346.0,77.7002946856 342.0,77.681390702" fill="none" stroke="#000000" stroke-width="0.505333019938"/>
	<path d="M 342.0,77.681390702 C 342.0,77.681390702 338.0,77.6813907172 334.0,77.9024056651" fill="none" stroke="#000000" stroke-width="0.505333019938"/>
	<path d="M 334.0,77.9024056651 C 334.0,77.9024056651 330.0,78.6818228864 327.898279219,85.0" fill="none" stroke="#000000" stroke-width="0.505333019938"/>
	<path d="M 327.898279219,85.0 C 327.898279219,85.0 332.897294948,105.0 337.642422644,122.0" fill="none" stroke="#000000" stroke-width="0.505333019938"/>
	<path d="M 337.642422644,122.0 C 337.642422644,122.0 339.651084185,135.0 356.0,148.199913983" fill="none" stroke="#000000" stroke-width="0.505333019938"/>
	<path d="M 356.0,148.199913983 C 356.0,148.199913983 352.348827543,148.0 349.0,146.844435525" fill="none" stroke="#000000" stroke-width="0.505333019938"/>
	<path d="M 349.0,146.844435525 C 349.0,146.844435525 345.216353576,145.0 341.0,143.64304548" fill="none" stroke="#000000" stroke-width="0.505333019938"/>
	<path d="M 341.0,143.64304548 C 341.0,143.64304548 338.0,142.673275172 334.834683513,144.0" fill="none" stroke="#000000" stroke-width="0.505333019938"/>
	<path d="M 334.834683513,144.0 C 334.834683513,144.0 331.0,146.452372683 327.0,148.694284237" fill="none" stroke="#000000" stroke-width="0.505333019938"/>
	<path d="M 327.0,148.694284237 C 327.0,148.694284237 323.0,150.880262532 320.0,153.6443826" fill="none" stroke="#000000" stroke-width="0.505333019938"/>
	<path d="M 320.0,153.6443826 C 320.0,153.6443826 316.507528132,154.0 312.208148854,156.0" fill="none" stroke="#000000" stroke-width="0.505333019938"/>
	<path d="M 312.208148854,156.0 C 312.208148854,156.0 309.0,156.140794869 306.442907906,160.0" fill="none" stroke="#000000" stroke-width="0.505333019938"/>
	<path d="M 306.442907906,160.0 C 306.442907906,160.0 308.457742041,168.0 306.0,165.420256312" fill="none" stroke="#000000" stroke-width="0.505333019938"/>
	<path d="M 306.0,165.420256312 C 306.0,165.420256312 304.108009224,161.0 302.0,156.739799911" fill="none" stroke="#000000" stroke-width="0.505333019938"/>
	<path d="M 302.0,156.739799911 C 302.0,156.739799911 299.317673298,153.0 297.0,149.740232603" fill="none" stroke="#000000" stroke-width="0.505333019938"/>
	<path d="M 297.0,149.740232603 C 297.0,149.740232603 294.0,146.734478157 291.0,143.757038861" fill="none" stroke="#000000" stroke-width="0.505333019938"/>
	<path d="M 291.0,143.757038861 C 291.0,143.757038861 288.0,141.901334612 283.0,142.698610597" fill="none" stroke="#000000" stroke-width="0.505333019938"/>
	<path d="M 283.0,142.698610597 C 283.0,142.698610597 280.0,143.659951074 276.0,143.681390702" fill="none" stroke="#000000" stroke-width="0.505333019938"/>
	<path d="M 276.0,143.681390702 C 276.0,143.681390702 272.0,143.681390717 268.0,143.896315684" fill="none" stroke="#000000" stroke-width="0.505333019938"/>
	<path d="M 268.0,143.896315684 C 268.0,143.896315684 265.0,143.897545076 261.0,143.65979667" fill="none" stroke="#000000" stroke-width="0.505333019938"/>
	<path d="M 261.0,143.65979667 C 261.0,143.65979667 257.0,142.681698901 254.0,142.433406138" fill="none" stroke="#000000" stroke-width="0.505333019938"/>
	<path d="M 254.0,142.433406138 C 254.0,142.433406138 250.0,141.674115774 246.215133085,141.0" fill="none" stroke="#000000" stroke-width="0.505333019938"/>
	<path d="M 246.215133085,141.0 C 246.215133085,141.0 243.0,139.698976688 240.0,138.896180334" fill="none" stroke="#000000" stroke-width="0.505333019938"/>
	<path d="M 240.0,138.896180334 C 240.0,138.896180334 236.0,137.889968831 232.0,138.383137626" fill="none" stroke="#000000" stroke-width="0.505333019938"/>
	<path d="M 232.0,138.383137626 C 232.0,138.383137626 228.0,139.898001232 224.862946583,142.0" fill="none" stroke="#000000" stroke-width="0.505333019938"/>
	<path d="M 224.862946583,142.0 C 224.862946583,142.0 223.679705253,148.0 226.630396641,159.0" fill="none" stroke="#000000" stroke-width="0.505333019938"/>
	<path d="M 226.630396641,159.0 C 226.630396641,159.0 227.604555072,168.0 237.0,180.112179172" fill="none" stroke="#000000" stroke-width="0.505333019938"/>
	<path d="M 237.0,180.112179172 C 237.0,180.112179172 271.0,201.368604417 268.74082914,203.0" fill="none" stroke="#000000" stroke-width="0.505333019938"/>
	<path d="M 268.74082914,203.0 C 268.74082914,203.0 265.0,201.442668385 262.083884761,198.0" fill="none" stroke="#000000" stroke-width="0.505333019938"/>
	<path d="M 262.083884761,198.0 C 262.083884761,198.0 259.0,195.880570768 255.30671046,193.0" fill="none" stroke="#000000" stroke-width="0.505333019938"/>
	<path d="M 255.30671046,193.0 C 255.30671046,193.0 252.0,190.881704815 248.0,189.399986295" fill="none" stroke="#000000" stroke-width="0.505333019938"/>
	<path d="M 248.0,189.399986295 C 248.0,189.399986295 245.0,186.896257316 241.20872395,185.0" fill="none" stroke="#000000" stroke-width="0.505333019938"/>
	<path d="M 241.20872395,185.0 C 241.20872395,185.0 237.411266727,183.0 234.226919908,181.0" fill="none" stroke="#000000" stroke-width="0.505333019938"/>
	<path d="M 234.226919908,181.0 C 234.226919908,181.0 230.183514815,179.0 227.201200732,179.0" fill="none" stroke="#000000" stroke-width="0.505333019938"/>
	<path d="M 227.201200732,179.0 C 227.201200732,179.0 224.0,180.426146242 220.706366148,183.0" fill="none" stroke="#000000" stroke-width="0.505333019938"/>
	<path d="M 220.706366148,183.0 C 220.706366148,183.0 217.60791203,186.0 214.0,188.727479722" fill="none" stroke="#000000" stroke-width="0.505333019938"/>
	<path d="M 214.0,188.727479722 C 214.0,188.727479722 210.874428624,191.0 208.0,194.603292643" fill="none" stroke="#000000" stroke-width="0.505333019938"/>
	<path d="M 208.0,194.603292643 C 208.0,194.603292643 204.847412957,196.0 201.859006052,199.0" fill="none" stroke="#000000" stroke-width="0.505333019938"/>
	<path d="M 201.859006052,199.0 C 201.859006052,199.0 202.0,203.36894389 198.0,203.032404724" fill="none" stroke="#000000" stroke-width="0.505333019938"/>
	<path d="M 198.0,203.032404724 C 198.0,203.032404724 196.0,200.1599033 193.0,199.652479452" fill="none" stroke="#000000" stroke-width="0.505333019938"/>
	<path d="M 193.0,199.652479452 C 193.0,199.652479452 191.0,197.075831156 188.0,197.042644047" fill="none" stroke="#000000" stroke-width="0.505333019938"/>
	<path d="M 188.0,197.042644047 C 188.0,197.042644047 214.281792505,185.0 225.369594629,171.0" fill="none" stroke="#000000" stroke-width="0.505333019938"/>
	<path d="M 225.369594629,171.0 C 225.369594629,171.0 224.43241833,165.0 223.425992893,159.0" fill="none" stroke="#000000" stroke-width="0.505333019938"/>
	<path d="M 223.425992893,159.0 C 223.425992893,159.0 222.31832074,153.0 221.147959246,147.0" fill="none" stroke="#000000" stroke-width="0.505333019938"/>
	<path d="M 221.147959246,147.0 C 221.147959246,147.0 219.0,143.883089059 215.0,142.320070667" fill="none" stroke="#000000" stroke-width="0.505333019938"/>
	<path d="M 215.0,142.320070667 C 215.0,142.320070667 212.0,140.051910952 209.0,139.312995473" fill="none" stroke="#000000" stroke-width="0.505333019938"/>
	<path d="M 209.0,139.312995473 C 209.0,139.312995473 230.332627609,132.0 229.357458454,126.0" fill="none" stroke="#000000" stroke-width="0.505333019938"/>
	<path d="M 229.357458454,126.0 C 229.357458454,126.0 228.340033218,121.0 228.0,115.804890533" fill="none" stroke="#000000" stroke-width="0.505333019938"/>
	<path d="M 228.0,115.804890533 C 228.0,115.804890533 227.0,110.805825527 226.0,105.807246404" fill="none" stroke="#000000" stroke-width="0.505333019938"/>
	<path d="M 226.0,105.807246404 C 226.0,105.807246404 225.101694795,100.0 224.318301037,95.0" fill="none" stroke="#000000" stroke-width="0.505333019938"/>
	<path d="M 224.318301037,95.0 C 224.318301037,95.0 223.319071195,90.0 222.339916385,85.0" fill="none" stroke="#000000" stroke-width="0.505333019938"/>
	<path d="M 222.339916385,85.0 C 222.339916385,85.0 221.079443209,80.0 218.0,77.4727811539" fill="none" stroke="#000000" stroke-width="0.505333019938"/>
	<path d="M 218.0,77.4727811539 C 218.0,77.4727811539 215.0,76.6817100953 211.0,76.6600702485" fill="none" stroke="#000000" stroke-width="0.505333019938"/>
	<path d="M 211.0,76.6600702485 C 211.0,76.6600702485 207.0,75.6817099082 203.0,75.6813907019" fill="none" stroke="#000000" stroke-width="0.505333019938"/>
	<path d="M 203.0,75.6813907019 C 203.0,75.6813907019 199.0,75.6813907019 196.0,75.6813907019" fill="none" stroke="#000000" stroke-width="0.505333019938"/>
	<path d="M 196.0,75.6813907019 C 196.0,75.6813907019 192.0,75.6813907019 188.0,75.6813907019" fill="none" stroke="#000000" stroke-width="0.505333019938"/>
	<path d="M 188.0,75.6813907019 C 188.0,75.6813907019 184.0,75.6813907019 180.0,75.6813907019" fill="none" stroke="#000000" stroke-width="0.505333019938"/>
	<path d="M 180.0,75.6813907019 C 180.0,75.6813907019 176.0,75.6813907019 172.0,75.6813907019" fill="none" stroke="#000000" stroke-width="0.505333019938"/>
	<path d="M 172.0,75.6813907019 C 172.0,75.6813907019 169.0,75.6813907019 165.0,75.6813907019" fill="none" stroke="#000000" stroke-width="0.505333019938"/>
	<path d="M 165.0,75.6813907019 C 165.0,75.6813907019 161.0,75.6813907019 157.0,75.6813940656" fill="none" stroke="#000000" stroke-width="0.505333019938"/>
	<path d="M 157.0,75.6813940656 C 157.0,75.6813940656 153.973445134,76.0 154.0,85.195529005" fill="none" stroke="#000000" stroke-width="0.505333019938"/>
	<path d="M 154.0,85.195529005 C 154.0,85.195529005 159.66003274,101.0 164.0,114.255980197" fill="none" stroke="#000000" stroke-width="0.505333019938"/>
	<path d="M 164.0,114.255980197 C 164.0,114.255980197 208.0,137.457463914 204.0,137.275364973" fill="none" stroke="#000000" stroke-width="0.505333019938"/>
	<path d="M 204.0,137.275364973 C 204.0,137.275364973 201.0,135.857060637 197.0,135.40588326" fill="none" stroke="#000000" stroke-width="0.505333019938"/>
	<path d="M 197.0,135.40588326 C 197.0,135.40588326 194.134244721,133.0 190.22578364,131.0" fill="none" stroke="#000000" stroke-width="0.505333019938"/>
	<path d="M 190.22578364,131.0 C 190.22578364,131.0 187.0,129.677583628 183.22594713,128.0" fill="none" stroke="#000000" stroke-width="0.505333019938"/>
	<path d="M 183.22594713,128.0 C 183.22594713,128.0 180.0,126.468012994 176.208171204,125.0" fill="none" stroke="#000000" stroke-width="0.505333019938"/>
	<path d="M 176.208171204,125.0 C 176.208171204,125.0 173.0,123.46694856 170.0,121.880704278" fill="none" stroke="#000000" stroke-width="0.505333019938"/>
	<path d="M 170.0,121.880704278 C 170.0,121.880704278 166.0,120.438428519 162.0,120.679907017" fill="none" stroke="#000000" stroke-width="0.505333019938"/>
	<path d="M 162.0,120.679907017 C 162.0,120.679907017 159.0,122.691691754 156.0,126.732378792" fill="none" stroke="#000000" stroke-width="0.505333019938"/>
	<path d="M 156.0,126.732378792 C 156.0,126.732378792 152.899245691,130.0 149.865973262,133.0" fill="none" stroke="#000000" stroke-width="0.505333019938"/>
	<path d="M 149.865973262,133.0 C 149.865973262,133.0 146.651934211,137.0 143.0,140.816475789" fill="none" stroke="#000000" stroke-width="0.505333019938"/>
	<path d="M 143.0,140.816475789 C 143.0,140.816475789 140.0,144.599273843 137.0,147.304418925" fill="none" stroke="#000000" stroke-width="0.505333019938"/>
	<path d="M 137.0,147.304418925 C 137.0,147.304418925 134.31099574,150.0 133.0,153.5128922" fill="none" stroke="#000000" stroke-width="0.505333019938"/>
	<path d="M 133.0,153.5128922 C 133.0,153.5128922 129.0,153.06127108 126.0,151.548907944" fill="none" stroke="#000000" stroke-width="0.505333019938"/>
	<path d="M 126.0,151.548907944 C 126.0,151.548907944 122.22958177,150.0 119.0,148.438027946" fill="none" stroke="#000000" stroke-width="0.505333019938"/>
	<path d="M 119.0,148.438027946 C 119.0,148.438027946 116.0,146.879718479 112.364231407,145.0" fill="none" stroke="#000000" stroke-width="0.505333019938"/>
	<path d="M 112.364231407,145.0 C 112.364231407,145.0 109.0,142.886024073 105.182292031,141.0" fill="none" stroke="#000000" stroke-width="0.505333019938"/>
	<path d="M 105.182292031,141.0 C 105.182292031,141.0 102.0,139.702951941 98.1996952948,137.0" fill="none" stroke="#000000" stroke-width="0.505333019938"/>
	<path d="M 98.1996952948,137.0 C 98.1996952948,137.0 95.0,135.444005011 92.0,133.680662456" fill="none" stroke="#000000" stroke-width="0.505333019938"/>
	<path d="M 92.0,133.680662456 C 92.0,133.680662456 88.0,132.405609568 85.2385887131,129.0" fill="none" stroke="#000000" stroke-width="0.505333019938"/>
	<path d="M 85.2385887131,129.0 C 85.2385887131,129.0 82.1316260228,126.0 79.2629789107,124.0" fill="none" stroke="#000000" stroke-width="0.505333019938"/>
	<path d="M 79.2629789107,124.0 C 79.2629789107,124.0 76.0,121.439726118 73.0,118.456508909" fill="none" stroke="#000000" stroke-width="0.505333019938"/>
	<path d="M 73.0,118.456508909 C 73.0,118.456508909 70.2584360131,116.0 67.0,113.445525823" fill="none" stroke="#000000" stroke-width="0.505333019938"/>
	<path d="M 67.0,113.445525823 C 67.0,113.445525823 64.0,110.760491553 61.0,108.704526457" fill="none" stroke="#000000" stroke-width="0.505333019938"/>
	<path d="M 61.0,108.704526457 C 61.0,108.704526457 58.0,105.740456349 55.0,102.903647345" fill="none" stroke="#000000" stroke-width="0.505333019938"/>
	<path d="M 55.0,102.903647345 C 55.0,102.903647345 52.0,100.739260078 49.0,97.7377757116" fill="none" stroke="#000000" stroke-width="0.505333019938"/>
	<path d="M 49.0,97.7377757116 C 49.0,97.7377757116 46.0,94.7377667827 43.0,91.7377667827" fill="none" stroke="#000000" stroke-width="0.505333019938"/>
	<path d="M 43.0,91.7377667827 C 43.0,91.7377667827 40.2622331573,89.0 37.1332944193,86.0" fill="none" stroke="#000000" stroke-width="0.505333019938"/>
	<path d="M 37.1332944193,86.0 C 37.1332944193,86.0 33.0,84.4383991919 30.0,83.4123888807" fill="none" stroke="#000000" stroke-width="0.505333019938"/>
	<path d="M 30.0,83.4123888807 C 30.0,83.4123888807 26.0,81.4369838859 23.205183598,80.0" fill="none" stroke="#000000" stroke-width="0.505333019938"/>
	<path d="M 23.205183598,80.0 C 23.205183598,80.0 20.2736017571,77.0 17.1788038978,74.0" fill="none" stroke="#000000" stroke-width="0.505333019938"/>
	<path d="M 17.1788038978,74.0 C 17.1788038978,74.0 14.0,73.6810088374 11.0,72.9024056652" fill="none" stroke="#000000" stroke-width="0.505333019938"/>
	<path d="M 11.0,72.9024056652 C 11.0,72.9024056652 6.0,72.6813907021 3.0,72.681821419" fill="none" stroke="#000000" stroke-width="0.505333019938"/>
	<path d="M 15.0,246.318609298 C 15.0,246.318609298 19.0,246.318609298 23.0,246.318609298" fill="none" stroke="#000000" stroke-width="0.505333019938"/>
	<path d="M 23.0,246.318609298 C 23.0,246.318609298 27.0,246.318609298 31.0,246.318609298" fill="none" stroke="#000000" stroke-width="0.505333019938"/>
	<path d="M 31.0,246.318609298 C 31.0,246.318609298 35.0,246.318609298 38.0,246.318609298" fill="none" stroke="#000000" stroke-width="0.505333019938"/>
	<path d="M 38.0,246.318609298 C 38.0,246.318609298 42.0,246.318609298 46.0,246.318832292" fill="none" stroke="#000000" stroke-width="0.505333019938"/>
	<path d="M 46.0,246.318832292 C 46.0,246.318832292 50.0,246.330501084 53.0,246.341152891" fill="none" stroke="#000000" stroke-width="0.505333019938"/>
	<path d="M 53.0,246.341152891 C 53.0,246.341152891 57.0,246.414694781 61.0,246.322110274" fill="none" stroke="#000000" stroke-width="0.505333019938"/>
	<path d="M 61.0,246.322110274 C 61.0,246.322110274 64.0,246.354989873 68.0,246.331469612" fill="none" stroke="#000000" stroke-width="0.505333019938"/>
	<path d="M 68.0,246.331469612 C 68.0,246.331469612 72.0,246.64703177 76.0,246.521789824" fill="none" stroke="#000000" stroke-width="0.505333019938"/>
	<path d="M 76.0,246.521789824 C 76.0,246.521789824 79.0,246.567267705 83.0,246.473190598" fill="none" stroke="#000000" stroke-width="0.505333019938"/>
	<path d="M 83.0,246.473190598 C 83.0,246.473190598 86.0,246.597169874 90.0,246.941503288" fill="none" stroke="#000000" stroke-width="0.505333019938"/>
	<path d="M 90.0,246.941503288 C 90.0,246.941503288 94.0,246.945521567 98.0,246.943244571" fill="none" stroke="#000000" stroke-width="0.505333019938"/>
	<path d="M 98.0,246.943244571 C 98.0,246.943244571 101.0,246.941235475 105.0,246.938946291" fill="none" stroke="#000000" stroke-width="0.505333019938"/>
	<path d="M 105.0,246.938946291 C 105.0,246.938946291 109.0,246.94068339 112.0,246.939012614" fill="none" stroke="#000000" stroke-width="0.505333019938"/>
	<path d="M 112.0,246.939012614 C 112.0,246.939012614 116.0,246.774695308 120.0,246.3551041" fill="none" stroke="#000000" stroke-width="0.505333019938"/>
	<path d="M 120.0,246.3551041 C 120.0,246.3551041 123.0,246.422090852 127.0,246.33077666" fill="none" stroke="#000000" stroke-width="0.505333019938"/>
	<path d="M 127.0,246.33077666 C 127.0,246.33077666 131.0,246.330798621 134.0,246.376446413" fill="none" stroke="#000000" stroke-width="0.505333019938"/>
	<path d="M 134.0,246.376446413 C 134.0,246.376446413 138.0,246.320836997 142.0,246.365734905" fill="none" stroke="#000000" stroke-width="0.505333019938"/>
	<path d="M 142.0,246.365734905 C 142.0,246.365734905 145.0,246.319389647 149.0,246.374438292" fill="none" stroke="#000000" stroke-width="0.505333019938"/>
	<path d="M 149.0,246.374438292 C 149.0,246.374438292 153.0,246.406940257 155.429531683,247.0" fill="none" stroke="#000000" stroke-width="0.505333019938"/>
	<path d="M 167.134177563,247.0 C 167.134177563,247.0 172.0,246.376912749 175.0,246.318626253" fill="none" stroke="#000000" stroke-width="0.505333019938"/>
	<path d="M 175.0,246.318626253 C 175.0,246.318626253 179.0,246.340750545 183.0,246.325903675" fill="none" stroke="#000000" stroke-width="0.505333019938"/>
	<path d="M 183.0,246.325903675 C 183.0,246.325903675 187.0,246.326288387 190.0,246.326677401" fill="none" stroke="#000000" stroke-width="0.505333019938"/>
	<path d="M 190.0,246.326677401 C 190.0,246.326677401 194.0,246.319007283 198.0,246.318609337" fill="none" stroke="#000000" stroke-width="0.505333019938"/>
	<path d="M 198.0,246.318609337 C 198.0,246.318609337 202.0,246.318609298 205.0,246.318783274" fill="none" stroke="#000000" stroke-width="0.505333019938"/>
	<path d="M 205.0,246.318783274 C 205.0,246.318783274 209.0,246.325744946 213.0,246.318609298" fill="none" stroke="#000000" stroke-width="0.505333019938"/>
	<path d="M 213.0,246.318609298 C 213.0,246.318609298 216.0,246.318609298 220.0,246.318609298" fill="none" stroke="#000000" stroke-width="0.505333019938"/>
	<path d="M 220.0,246.318609298 C 220.0,246.318609298 224.0,246.318609298 228.0,246.318609298" fill="none" stroke="#000000" stroke-width="0.505333019938"/>
	<path d="M 228.0,246.318609298 C 228.0,246.318609298 231.0,246.318609298 235.0,246.318609281" fill="none" stroke="#000000" stroke-width="0.505333019938"/>
	<path d="M 235.0,246.318609281 C 235.0,246.318609281 239.0,246.10833886 242.0,245.846953858" fill="none" stroke="#000000" stroke-width="0.505333019938"/>
	<path d="M 242.0,245.846953858 C 242.0,245.846953858 246.0,246.326058464 250.0,246.326061677" fill="none" stroke="#000000" stroke-width="0.505333019938"/>
	<path d="M 250.0,246.326061677 C 250.0,246.326061677 254.0,246.326061677 257.0,246.325918563" fill="none" stroke="#000000" stroke-width="0.505333019938"/>
	<path d="M 257.0,246.325918563 C 257.0,246.325918563 260.227316787,245.0 229.0,234.492694001" fill="none" stroke="#000000" stroke-width="0.505333019938"/>
	<path d="M 229.0,234.492694001 C 229.0,234.492694001 225.924748794,230.0 231.0,229.979400458" fill="none" stroke="#000000" stroke-width="0.505333019938"/>
	<path d="M 231.0,229.979400458 C 231.0,229.979400458 233.0,232.934367084 236.0,234.73045447" fill="none" stroke="#000000" stroke-width="0.505333019938"/>
	<path d="M 236.0,234.73045447 C 236.0,234.73045447 240.0,236.366357985 243.0,237.156832235" fill="none" stroke="#000000" stroke-width="0.505333019938"/>
	<path d="M 243.0,237.156832235 C 243.0,237.156832235 247.0,238.579058128 250.797018976,240.0" fill="none" stroke="#000000" stroke-width="0.505333019938"/>
	<path d="M 250.797018976,240.0 C 250.797018976,240.0 254.0,241.111179297 258.0,242.180987302" fill="none" stroke="#000000" stroke-width="0.505333019938"/>
	<path d="M 258.0,242.180987302 C 258.0,242.180987302 261.76593374,243.0 265.470282293,244.0" fill="none" stroke="#000000" stroke-width="0.505333019938"/>
	<path d="M 265.470282293,244.0 C 265.470282293,244.0 269.0,244.552643171 272.0,241.401614089" fill="none" stroke="#000000" stroke-width="0.505333019938"/>
	<path d="M 272.0,241.401614089 C 272.0,241.401614089 274.016446286,238.0 277.117578586,236.0" fill="none" stroke="#000000" stroke-width="0.505333019938"/>
	<path d="M 277.117578586,236.0 C 277.117578586,236.0 274.0,245.059396051 278.0,246.326058168" fill="none" stroke="#000000" stroke-width="0.505333019938"/>
	<path d="M 278.0,246.326058168 C 278.0,246.326058168 282.0,246.348520676 286.0,246.343052332" fill="none" stroke="#000000" stroke-width="0.505333019938"/>
	<path d="M 286.0,246.343052332 C 286.0,246.343052332 290.0,246.345150906 293.0,246.337587146" fill="none" stroke="#000000" stroke-width="0.505333019938"/>
	<path d="M 293.0,246.337587146 C 293.0,246.337587146 297.0,246.414624755 299.707678234,247.0" fill="none" stroke="#000000" stroke-width="0.505333019938"/>
	<path d="M 317.696001874,247.0 C 317.696001874,247.0 322.0,246.333178718 326.0,246.319588118" fill="none" stroke="#000000" stroke-width="0.505333019938"/>
	<path d="M 326.0,246.319588118 C 326.0,246.319588118 330.0,246.320261628 334.0,246.333342137" fill="none" stroke="#000000" stroke-width="0.505333019938"/>
	<path d="M 334.0,246.333342137 C 334.0,246.333342137 337.0,246.333186863 341.0,246.088497522" fill="none" stroke="#000000" stroke-width="0.505333019938"/>
	<path d="M 341.0,246.088497522 C 341.0,246.088497522 345.0,245.913523325 349.0,246.301792226" fill="none" stroke="#000000" stroke-width="0.505333019938"/>
	<path d="M 349.0,246.301792226 C 349.0,246.301792226 352.0,246.326581416 356.0,246.303245624" fill="none" stroke="#000000" stroke-width="0.505333019938"/>
	<path d="M 356.0,246.303245624 C 356.0,246.303245624 360.0,245.50979921 363.0,244.683694222" fill="none" stroke="#000000" stroke-width="0.505333019938"/>
	<path d="M 363.0,244.683694222 C 363.0,244.683694222 367.0,243.348348756 371.0,243.325737017" fill="none" stroke="#000000" stroke-width="0.505333019938"/>
	<path d="M 371.0,243.325737017 C 371.0,243.325737017 375.0,242.345080594 378.0,241.345961025" fill="none" stroke="#000000" stroke-width="0.505333019938"/>
	<path d="M 378.0,241.345961025 C 378.0,241.345961025 380.395190474,238.0 383.0,235.3048409" fill="none" stroke="#000000" stroke-width="0.505333019938"/>
	<path d="M 383.0,235.3048409 C 383.0,235.3048409 383.897302702,242.0 386.890313342,246.0" fill="none" stroke="#000000" stroke-width="0.505333019938"/>
	<path d="M 386.890313342,246.0 C 386.890313342,246.0 391.0,246.318609283 395.0,246.318609298" fill="none" stroke="#000000" stroke-width="0.505333019938"/>
	<path d="M 395.0,246.318609298 C 395.0,246.318609298 399.0,246.318609298 402.0,246.318609298" fill="none" stroke="#000000" stroke-width="0.505333019938"/>
	<path d="M 402.0,246.318609298 C 402.0,246.318609298 406.0,246.318609298 410.0,246.318609298" fill="none" stroke="#000000" stroke-width="0.505333019938"/>
	<path d="M 410.0,246.318609298 C 410.0,246.318609298 414.0,246.318609298 417.0,246.318609298" fill="none" stroke="#000000" stroke-width="0.505333019938"/>
	<path d="M 417.0,246.318609298 C 417.0,246.318609298 421.0,246.318609298 425.0,246.318609298" fill="none" stroke="#000000" stroke-width="0.505333019938"/>
	<path d="M 425.0,246.318609298 C 425.0,246.318609298 429.0,246.318609359 432.0,246.350201974" fill="none" stroke="#000000" stroke-width="0.505333019938"/>
	<path d="M 432.0,246.350201974 C 432.0,246.350201974 436.0,246.29281117 438.302767921,243.0" fill="none" stroke="#000000" stroke-width="0.505333019938"/>
	<path d="M 438.302767921,243.0 C 438.302767921,243.0 438.736220493,236.0 441.086189126,233.0" fill="none" stroke="#000000" stroke-width="0.505333019938"/>
	<path d="M 441.086189126,233.0 C 441.086189126,233.0 440.648380219,241.0 443.0,246.338729476" fill="none" stroke="#000000" stroke-width="0.505333019938"/>
	<path d="M 443.0,246.338729476 C 443.0,246.338729476 446.0,246.38034961 450.0,246.626346041" fill="none" stroke="#000000" stroke-width="0.505333019938"/>
	<path d="M 450.0,246.626346041 C 450.0,246.626346041 454.0,246.947192671 458.0,246.944606726" fill="none" stroke="#000000" stroke-width="0.505333019938"/>
	<path d="M 458.0,246.944606726 C 458.0,246.944606726 461.0,246.788334301 464.005453252,247.0" fill="none" stroke="#000000" stroke-width="0.505333019938"/>
	<path d="M 473.931236771,247.0 C 473.931236771,247.0 478.0,246.396413108 482.0,246.344608275" fill="none" stroke="#000000" stroke-width="0.505333019938"/>
	<path d="M 482.0,246.344608275 C 482.0,246.344608275 486.0,246.331266584 489.0,246.34937358" fill="none" stroke="#000000" stroke-width="0.505333019938"/>
	<path d="M 489.0,246.34937358 C 489.0,246.34937358 492.125371498,246.0 494.104295508,242.0" fill="none" stroke="#000000" stroke-width="0.505333019938"/>
	<path d="M 494.104295508,242.0 C 494.104295508,242.0 492.489175783,236.0 492.0,232.624556032" fill="none" stroke="#000000" stroke-width="0.505333019938"/>
	<path d="M 492.0,232.624556032 C 492.0,232.624556032 495.559112566,236.0 500.0,238.350588514" fill="none" stroke="#000000" stroke-width="0.505333019938"/>
	<path d="M 500.0,238.350588514 C 500.0,238.350588514 503.0,239.316752408 507.0,239.528500078" fill="none" stroke="#000000" stroke-width="0.505333019938"/>
	<path d="M 6.0,66.3189911626 C 6.0,66.3189911626 12.0,67.3186065996 18.0,67.5628777611" fill="none" stroke="#000000" stroke-width="0.505333019938"/>
	<path d="M 18.0,67.5628777611 C 18.0,67.5628777611 23.0,68.3186092828 29.0,68.3186092981" fill="none" stroke="#000000" stroke-width="0.505333019938"/>
	<path d="M 29.0,68.3186092981 C 29.0,68.3186092981 34.0,68.2996644933 40.0,67.3186093149" fill="none" stroke="#000000" stroke-width="0.505333019938"/>
	<path d="M 40.0,67.3186093149 C 40.0,67.3186093149 45.0,67.3186092981 50.0,67.3182900918" fill="none" stroke="#000000" stroke-width="0.505333019938"/>
	<path d="M 50.0,67.3182900918 C 50.0,67.3182900918 55.0,66.3186608653 59.0,64.257566588" fill="none" stroke="#000000" stroke-width="0.505333019938"/>
	<path d="M 59.0,64.257566588 C 59.0,64.257566588 64.0,56.2079456003 68.0,47.2075327887" fill="none" stroke="#000000" stroke-width="0.505333019938"/>
	<path d="M 68.0,47.2075327887 C 68.0,47.2075327887 72.277993063,43.0 71.6579915688,48.0" fill="none" stroke="#000000" stroke-width="0.505333019938"/>
	<path d="M 71.6579915688,48.0 C 71.6579915688,48.0 68.9001342087,53.0 66.6793770934,59.0" fill="none" stroke="#000000" stroke-width="0.505333019938"/>
	<path d="M 66.6793770934,59.0 C 66.6793770934,59.0 65.6818290373,64.0 68.0,66.3395867977" fill="none" stroke="#000000" stroke-width="0.505333019938"/>
	<path d="M 68.0,66.3395867977 C 68.0,66.3395867977 72.0,67.3182900924 76.0,67.3186092981" fill="none" stroke="#000000" stroke-width="0.505333019938"/>
	<path d="M 76.0,67.3186092981 C 76.0,67.3186092981 80.0,67.3186092981 84.0,67.3186092981" fill="none" stroke="#000000" stroke-width="0.505333019938"/>
	<path d="M 84.0,67.3186092981 C 84.0,67.3186092981 89.0,67.3186092981 93.0,67.3186092981" fill="none" stroke="#000000" stroke-width="0.505333019938"/>
	<path d="M 93.0,67.3186092981 C 93.0,67.3186092981 97.0,67.3186092981 101.0,67.3186093149" fill="none" stroke="#000000" stroke-width="0.505333019938"/>
	<path d="M 101.0,67.3186093149 C 101.0,67.3186093149 105.0,67.5628777611 109.0,68.3186065996" fill="none" stroke="#000000" stroke-width="0.505333019938"/>
	<path d="M 109.0,68.3186065996 C 109.0,68.3186065996 113.0,68.3186092981 117.0,68.3397830386" fill="none" stroke="#000000" stroke-width="0.505333019938"/>
	<path d="M 117.0,68.3397830386 C 117.0,68.3397830386 120.176720398,69.0 124.811350215,69.0" fill="none" stroke="#000000" stroke-width="0.505333019938"/>
	<path d="M 124.811350215,69.0 C 124.811350215,69.0 128.0,69.3186065996 132.0,69.3182996622" fill="none" stroke="#000000" stroke-width="0.505333019938"/>
	<path d="M 132.0,69.3182996622 C 132.0,69.3182996622 135.84746474,69.0 140.0,68.0248381645" fill="none" stroke="#000000" stroke-width="0.505333019938"/>
	<path d="M 140.0,68.0248381645 C 140.0,68.0248381645 142.563762118,61.0 144.318315535,53.0" fill="none" stroke="#000000" stroke-width="0.505333019938"/>
	<path d="M 144.318315535,53.0 C 144.318315535,53.0 145.715009088,44.0 147.68138587,47.0" fill="none" stroke="#000000" stroke-width="0.505333019938"/>
	<path d="M 147.68138587,47.0 C 147.68138587,47.0 147.0,52.8058249868 146.436223984,59.0" fill="none" stroke="#000000" stroke-width="0.505333019938"/>
	<path d="M 146.436223984,59.0 C 146.436223984,59.0 145.0,64.8204039817 146.893584738,69.0" fill="none" stroke="#000000" stroke-width="0.505333019938"/>
	<path d="M 146.893584738,69.0 C 146.893584738,69.0 151.0,69.5628777243 154.0,70.3182900918" fill="none" stroke="#000000" stroke-width="0.505333019938"/>
	<path d="M 154.0,70.3182900918 C 154.0,70.3182900918 158.0,70.3186092981 162.0,70.3186092981" fill="none" stroke="#000000" stroke-width="0.505333019938"/>
	<path d="M 162.0,70.3186092981 C 162.0,70.3186092981 166.0,70.3186092981 170.0,70.3186092981" fill="none" stroke="#000000" stroke-width="0.505333019938"/>
	<path d="M 170.0,70.3186092981 C 170.0,70.3186092981 174.0,70.3186092981 178.0,70.3186093148" fill="none" stroke="#000000" stroke-width="0.505333019938"/>
	<path d="M 178.0,70.3186093148 C 178.0,70.3186093148 182.0,70.5612133424 185.0,70.5612133424" fill="none" stroke="#000000" stroke-width="0.505333019938"/>
	<path d="M 185.0,70.5612133424 C 185.0,70.5612133424 189.0,70.3186093148 193.0,70.3186092981" fill="none" stroke="#000000" stroke-width="0.505333019938"/>
	<path d="M 193.0,70.3186092981 C 193.0,70.3186092981 197.0,70.3186092981 201.0,70.318609298" fill="none" stroke="#000000" stroke-width="0.505333019938"/>
	<path d="M 201.0,70.318609298 C 201.0,70.318609298 205.0,70.2981509224 207.528501712,68.0" fill="none" stroke="#000000" stroke-width="0.505333019938"/>
	<path d="M 207.528501712,68.0 C 207.528501712,68.0 210.0,61.1932952564 211.34024532,53.0" fill="none" stroke="#000000" stroke-width="0.505333019938"/>
	<path d="M 211.34024532,53.0 C 211.34024532,53.0 212.339992073,45.0 215.0,39.7223343823" fill="none" stroke="#000000" stroke-width="0.505333019938"/>
	<path d="M 215.0,39.7223343823 C 215.0,39.7223343823 215.896816372,45.0 214.681680479,51.0" fill="none" stroke="#000000" stroke-width="0.505333019938"/>
	<path d="M 214.681680479,51.0 C 214.681680479,51.0 213.680815674,58.0 213.436659281,64.0" fill="none" stroke="#000000" stroke-width="0.505333019938"/>
	<path d="M 213.436659281,64.0 C 213.436659281,64.0 212.910873877,70.0 216.0,71.3182771358" fill="none" stroke="#000000" stroke-width="0.505333019938"/>
	<path d="M 216.0,71.3182771358 C 216.0,71.3182771358 219.81135317,72.0 224.0,72.3186092828" fill="none" stroke="#000000" stroke-width="0.505333019938"/>
	<path d="M 224.0,72.3186092828 C 224.0,72.3186092828 228.0,72.3186093177 231.0,72.329562384" fill="none" stroke="#000000" stroke-width="0.505333019938"/>
	<path d="M 231.0,72.329562384 C 231.0,72.329562384 235.0,72.3300167041 239.0,72.3503748868" fill="none" stroke="#000000" stroke-width="0.505333019938"/>
	<path d="M 239.0,72.3503748868 C 239.0,72.3503748868 243.0,73.318290099 246.0,73.318609298" fill="none" stroke="#000000" stroke-width="0.505333019938"/>
	<path d="M 246.0,73.318609298 C 246.0,73.318609298 250.0,73.3186092981 254.0,73.3186092981" fill="none" stroke="#000000" stroke-width="0.505333019938"/>
	<path d="M 254.0,73.3186092981 C 254.0,73.3186092981 258.0,73.3186092981 262.0,73.3186092981" fill="none" stroke="#000000" stroke-width="0.505333019938"/>
	<path d="M 262.0,73.3186092981 C 262.0,73.3186092981 265.0,73.3186092826 269.0,73.0755870553" fill="none" stroke="#000000" stroke-width="0.505333019938"/>
	<path d="M 269.0,73.0755870553 C 269.0,73.0755870553 271.318290861,68.0 271.318609298,58.0" fill="none" stroke="#000000" stroke-width="0.505333019938"/>
	<path d="M 271.318609298,58.0 C 271.318609298,58.0 271.318978336,49.0 271.342498918,40.0" fill="none" stroke="#000000" stroke-width="0.505333019938"/>
	<path d="M 271.342498918,40.0 C 271.342498918,40.0 274.401727495,39.0 274.681390702,45.0" fill="none" stroke="#000000" stroke-width="0.505333019938"/>
	<path d="M 274.681390702,45.0 C 274.681390702,45.0 274.681390702,51.0 274.681699339,57.0" fill="none" stroke="#000000" stroke-width="0.505333019938"/>
	<path d="M 274.681699339,57.0 C 274.681699339,57.0 274.681699339,63.0 274.701678768,70.0" fill="none" stroke="#000000" stroke-width="0.505333019938"/>
	<path d="M 274.701678768,70.0 C 274.701678768,70.0 277.0,73.0788389115 281.0,73.3186092826" fill="none" stroke="#000000" stroke-width="0.505333019938"/>
	<path d="M 281.0,73.3186092826 C 281.0,73.3186092826 285.0,73.3186092981 289.0,73.3186092981" fill="none" stroke="#000000" stroke-width="0.505333019938"/>
	<path d="M 289.0,73.3186092981 C 289.0,73.3186092981 292.0,73.3186092981 296.0,73.3186092981" fill="none" stroke="#000000" stroke-width="0.505333019938"/>
	<path d="M 296.0,73.3186092981 C 296.0,73.3186092981 300.0,73.3186092981 304.0,73.3186092981" fill="none" stroke="#000000" stroke-width="0.505333019938"/>
	<path d="M 304.0,73.3186092981 C 304.0,73.3186092981 308.0,73.3186092981 311.0,73.3186092981" fill="none" stroke="#000000" stroke-width="0.505333019938"/>
	<path d="M 311.0,73.3186092981 C 311.0,73.3186092981 315.0,73.3186092981 319.0,73.3186065996" fill="none" stroke="#000000" stroke-width="0.505333019938"/>
	<path d="M 319.0,73.3186065996 C 319.0,73.3186065996 322.18864683,73.0 327.0,72.0755871013" fill="none" stroke="#000000" stroke-width="0.505333019938"/>
	<path d="M 327.0,72.0755871013 C 327.0,72.0755871013 329.096995071,69.0 329.318994686,60.0" fill="none" stroke="#000000" stroke-width="0.505333019938"/>
	<path d="M 329.318994686,60.0 C 329.318994686,60.0 329.318612401,51.0 329.318612407,43.0" fill="none" stroke="#000000" stroke-width="0.505333019938"/>
	<path d="M 329.318612407,43.0 C 329.318612407,43.0 331.867765284,40.0 332.699700086,45.0" fill="none" stroke="#000000" stroke-width="0.505333019938"/>
	<path d="M 332.699700086,45.0 C 332.699700086,45.0 332.681390717,52.0 332.681390702,58.0" fill="none" stroke="#000000" stroke-width="0.505333019938"/>
	<path d="M 332.681390702,58.0 C 332.681390702,58.0 332.681390702,64.0 332.921161089,70.0" fill="none" stroke="#000000" stroke-width="0.505333019938"/>
	<path d="M 332.921161089,70.0 C 332.921161089,70.0 337.0,72.3395738607 340.0,73.2996645009" fill="none" stroke="#000000" stroke-width="0.505333019938"/>
	<path d="M 340.0,73.2996645009 C 340.0,73.2996645009 344.0,73.3189939005 347.0,74.0980004379" fill="none" stroke="#000000" stroke-width="0.505333019938"/>
	<path d="M 347.0,74.0980004379 C 347.0,74.0980004379 351.0,74.3186092829 355.0,74.3186092981" fill="none" stroke="#000000" stroke-width="0.505333019938"/>
	<path d="M 355.0,74.3186092981 C 355.0,74.3186092981 359.0,74.3186092981 363.0,74.3399297515" fill="none" stroke="#000000" stroke-width="0.505333019938"/>
	<path d="M 363.0,74.3399297515 C 363.0,74.3399297515 366.0,75.2996644933 370.0,75.3186092981" fill="none" stroke="#000000" stroke-width="0.505333019938"/>
	<path d="M 370.0,75.3186092981 C 370.0,75.3186092981 374.0,75.3399297515 377.0,76.2996644933" fill="none" stroke="#000000" stroke-width="0.505333019938"/>
	<path d="M 377.0,76.2996644933 C 377.0,76.2996644933 381.0,76.318609298 385.0,76.3186092826" fill="none" stroke="#000000" stroke-width="0.505333019938"/>
	<path d="M 385.0,76.3186092826 C 385.0,76.3186092826 389.0,76.0788390606 391.527303924,73.0" fill="none" stroke="#000000" stroke-width="0.505333019938"/>
	<path d="M 391.527303924,73.0 C 391.527303924,73.0 392.339949892,66.0 393.318609298,58.0" fill="none" stroke="#000000" stroke-width="0.505333019938"/>
	<path d="M 393.318609298,58.0 C 393.318609298,58.0 393.318606664,49.0 393.447190226,42.0" fill="none" stroke="#000000" stroke-width="0.505333019938"/>
	<path d="M 393.447190226,42.0 C 393.447190226,42.0 395.681386385,46.0 395.681390702,52.0" fill="none" stroke="#000000" stroke-width="0.505333019938"/>
	<path d="M 395.681390702,52.0 C 395.681390702,52.0 395.681390717,59.0 396.0,64.788017413" fill="none" stroke="#000000" stroke-width="0.505333019938"/>
	<path d="M 396.0,64.788017413 C 396.0,64.788017413 395.681393471,72.0 397.0,76.229875546" fill="none" stroke="#000000" stroke-width="0.505333019938"/>
	<path d="M 397.0,76.229875546 C 397.0,76.229875546 401.0,77.3399275398 405.0,78.3186751737" fill="none" stroke="#000000" stroke-width="0.505333019938"/>
	<path d="M 405.0,78.3186751737 C 405.0,78.3186751737 407.811349379,79.0 412.0,79.3186092829" fill="none" stroke="#000000" stroke-width="0.505333019938"/>
	<path d="M 412.0,79.3186092829 C 412.0,79.3186092829 416.0,79.3399297515 419.0,80.2996644933" fill="none" stroke="#000000" stroke-width="0.505333019938"/>
	<path d="M 419.0,80.2996644933 C 419.0,80.2996644933 423.0,80.3186093148 427.0,80.5628777611" fill="none" stroke="#000000" stroke-width="0.505333019938"/>
	<path d="M 427.0,80.5628777611 C 427.0,80.5628777611 430.0,81.3182900918 434.0,81.3186092981" fill="none" stroke="#000000" stroke-width="0.505333019938"/>
	<path d="M 434.0,81.3186092981 C 434.0,81.3186092981 438.0,81.3186092981 442.0,81.3186092981" fill="none" stroke="#000000" stroke-width="0.505333019938"/>
	<path d="M 442.0,81.3186092981 C 442.0,81.3186092981 445.0,81.318611821 449.0,81.1074956696" fill="none" stroke="#000000" stroke-width="0.505333019938"/>
	<path d="M 449.0,81.1074956696 C 449.0,81.1074956696 453.0,79.1171530243 456.361810927,77.0" fill="none" stroke="#000000" stroke-width="0.505333019938"/>
	<path d="M 456.361810927,77.0 C 456.361810927,77.0 460.0,74.2530267246 461.320067579,69.0" fill="none" stroke="#000000" stroke-width="0.505333019938"/>
	<path d="M 461.320067579,69.0 C 461.320067579,69.0 459.101702092,58.0 456.56367603,48.0" fill="none" stroke="#000000" stroke-width="0.505333019938"/>
	<path d="M 456.56367603,48.0 C 456.56367603,48.0 457.0,39.7526758584 458.898613782,45.0" fill="none" stroke="#000000" stroke-width="0.505333019938"/>
	<path d="M 458.898613782,45.0 C 458.898613782,45.0 459.898196707,50.0 461.0,55.1951095353" fill="none" stroke="#000000" stroke-width="0.505333019938"/>
	<path d="M 461.0,55.1951095353 C 461.0,55.1951095353 462.435176997,61.0 463.676031163,66.0" fill="none" stroke="#000000" stroke-width="0.505333019938"/>
	<path d="M 463.676031163,66.0 C 463.676031163,66.0 466.0,70.291473167 470.0,70.1039575375" fill="none" stroke="#000000" stroke-width="0.505333019938"/>
	<path d="M 470.0,70.1039575375 C 470.0,70.1039575375 473.192934297,69.0 477.0,68.0983934504" fill="none" stroke="#000000" stroke-width="0.505333019938"/>
	<path d="M 477.0,68.0983934504 C 477.0,68.0983934504 481.0,66.5616952053 485.0,65.3204751976" fill="none" stroke="#000000" stroke-width="0.505333019938"/>
	<path d="M 485.0,65.3204751976 C 485.0,65.3204751976 489.0,64.3001322349 492.0,63.3395898811" fill="none" stroke="#000000" stroke-width="0.505333019938"/>
	<path d="M 492.0,63.3395898811 C 492.0,63.3395898811 496.0,62.3509258821 499.213317439,62.0" fill="none" stroke="#000000" stroke-width="0.505333019938"/>
	<path d="M 499.213317439,62.0 C 499.213317439,62.0 503.193966545,61.0 507.0,60.2915106161" fill="none" stroke="#000000" stroke-width="0.505333019938"/>
	<path d="M 498.0,65.6740535647 C 498.0,65.6740535647 494.0,66.679443249 491.0,67.6795246218" fill="none" stroke="#000000" stroke-width="0.505333019938"/>
	<path d="M 491.0,67.6795246218 C 491.0,67.6795246218 487.0,68.6998675699 484.0,69.6795193276" fill="none" stroke="#000000" stroke-width="0.505333019938"/>
	<path d="M 484.0,69.6795193276 C 484.0,69.6795193276 480.0,70.9012462486 477.0,71.9012900105" fill="none" stroke="#000000" stroke-width="0.505333019938"/>
	<path d="M 477.0,71.9012900105 C 477.0,71.9012900105 473.814870147,73.0 470.0,74.8816830554" fill="none" stroke="#000000" stroke-width="0.505333019938"/>
	<path d="M 470.0,74.8816830554 C 470.0,74.8816830554 466.818162805,76.0 463.642572303,78.0" fill="none" stroke="#000000" stroke-width="0.505333019938"/>
	<path d="M 463.642572303,78.0 C 463.642572303,78.0 460.721277077,80.0 457.967827099,82.0" fill="none" stroke="#000000" stroke-width="0.505333019938"/>
	<path d="M 457.967827099,82.0 C 457.967827099,82.0 457.762684791,87.0 466.0,93.5293359704" fill="none" stroke="#000000" stroke-width="0.505333019938"/>
	<path d="M 466.0,93.5293359704 C 466.0,93.5293359704 477.0,98.5311268386 485.0,102.098177757" fill="none" stroke="#000000" stroke-width="0.505333019938"/>
	<path d="M 485.0,102.098177757 C 485.0,102.098177757 492.809656043,105.0 499.0,107.098753757" fill="none" stroke="#000000" stroke-width="0.505333019938"/>
	<path d="M 499.0,107.098753757 C 499.0,107.098753757 504.810474139,109.0 506.0,63.9011916274" fill="none" stroke="#000000" stroke-width="0.505333019938"/>
	<path d="M 46.0,72.9024056652 C 46.0,72.9024056652 41.0,73.6813933835 38.0,73.9024154184" fill="none" stroke="#000000" stroke-width="0.505333019938"/>
	<path d="M 38.0,73.9024154184 C 38.0,73.9024154184 34.8975813282,75.0 37.6665318497,80.0" fill="none" stroke="#000000" stroke-width="0.505333019938"/>
	<path d="M 37.6665318497,80.0 C 37.6665318497,80.0 40.0,84.2544179172 44.0,88.2622332172" fill="none" stroke="#000000" stroke-width="0.505333019938"/>
	<path d="M 44.0,88.2622332172 C 44.0,88.2622332172 47.0,91.2622332173 50.0,94.2622283845" fill="none" stroke="#000000" stroke-width="0.505333019938"/>
	<path d="M 50.0,94.2622283845 C 50.0,94.2622283845 53.0,97.0963568105 56.7394361778,100.0" fill="none" stroke="#000000" stroke-width="0.505333019938"/>
	<path d="M 56.7394361778,100.0 C 56.7394361778,100.0 59.0,102.096352543 62.7415642328,105.0" fill="none" stroke="#000000" stroke-width="0.505333019938"/>
	<path d="M 62.7415642328,105.0 C 62.7415642328,105.0 65.0,107.095797509 68.7484286856,110.0" fill="none" stroke="#000000" stroke-width="0.505333019938"/>
	<path d="M 68.7484286856,110.0 C 68.7484286856,110.0 71.6422294378,112.0 74.0,114.238644438" fill="none" stroke="#000000" stroke-width="0.505333019938"/>
	<path d="M 74.0,114.238644438 C 74.0,114.238644438 78.0,116.562453309 80.0,119.032500095" fill="none" stroke="#000000" stroke-width="0.505333019938"/>
	<path d="M 80.0,119.032500095 C 80.0,119.032500095 83.0,121.259635691 86.0,124.258439031" fill="none" stroke="#000000" stroke-width="0.505333019938"/>
	<path d="M 86.0,124.258439031 C 86.0,124.258439031 88.868417354,127.0 91.7445602369,129.0" fill="none" stroke="#000000" stroke-width="0.505333019938"/>
	<path d="M 91.7445602369,129.0 C 91.7445602369,129.0 95.0,131.275783359 98.0,133.114444711" fill="none" stroke="#000000" stroke-width="0.505333019938"/>
	<path d="M 98.0,133.114444711 C 98.0,133.114444711 101.800025584,135.0 105.799842337,137.0" fill="none" stroke="#000000" stroke-width="0.505333019938"/>
	<path d="M 105.799842337,137.0 C 105.799842337,137.0 108.878230262,139.0 112.630178205,140.0" fill="none" stroke="#000000" stroke-width="0.505333019938"/>
	<path d="M 112.630178205,140.0 C 112.630178205,140.0 115.0,142.239532233 118.0,144.275189003" fill="none" stroke="#000000" stroke-width="0.505333019938"/>
	<path d="M 118.0,144.275189003 C 118.0,144.275189003 121.790942323,146.0 125.465019938,148.0" fill="none" stroke="#000000" stroke-width="0.505333019938"/>
	<path d="M 125.465019938,148.0 C 125.465019938,148.0 129.0,149.300871879 133.0,148.900528511" fill="none" stroke="#000000" stroke-width="0.505333019938"/>
	<path d="M 133.0,148.900528511 C 133.0,148.900528511 137.243379503,145.0 141.0,139.492130473" fill="none" stroke="#000000" stroke-width="0.505333019938"/>
	<path d="M 141.0,139.492130473 C 141.0,139.492130473 145.263362098,134.0 150.0,129.095116998" fill="none" stroke="#000000" stroke-width="0.505333019938"/>
	<path d="M 150.0,129.095116998 C 150.0,129.095116998 153.287380869,125.0 157.270886012,121.0" fill="none" stroke="#000000" stroke-width="0.505333019938"/>
	<path d="M 157.270886012,121.0 C 157.270886012,121.0 160.318281799,116.0 156.321197122,101.0" fill="none" stroke="#000000" stroke-width="0.505333019938"/>
	<path d="M 156.321197122,101.0 C 156.321197122,101.0 152.0,87.8037209068 46.0,72.9024056652" fill="none" stroke="#000000" stroke-width="0.505333019938"/>
	<path d="M 227.0,77.9244129516 C 227.0,77.9244129516 224.90347193,81.0 225.68095296,86.0" fill="none" stroke="#000000" stroke-width="0.505333019938"/>
	<path d="M 225.68095296,86.0 C 225.68095296,86.0 225.69964193,89.0 226.680926461,93.0" fill="none" stroke="#000000" stroke-width="0.505333019938"/>
	<path d="M 226.680926461,93.0 C 226.680926461,93.0 226.898305382,97.0 227.6809288,100.0" fill="none" stroke="#000000" stroke-width="0.505333019938"/>
	<path d="M 227.6809288,100.0 C 227.6809288,100.0 228.0,103.187486977 229.659958221,107.0" fill="none" stroke="#000000" stroke-width="0.505333019938"/>
	<path d="M 229.659958221,107.0 C 229.659958221,107.0 229.681683801,111.0 230.435194437,114.0" fill="none" stroke="#000000" stroke-width="0.505333019938"/>
	<path d="M 230.435194437,114.0 C 230.435194437,114.0 230.898621948,118.0 231.680988155,121.0" fill="none" stroke="#000000" stroke-width="0.505333019938"/>
	<path d="M 231.680988155,121.0 C 231.680988155,121.0 231.898285972,125.0 232.697430842,128.0" fill="none" stroke="#000000" stroke-width="0.505333019938"/>
	<path d="M 232.697430842,128.0 C 232.697430842,128.0 233.91766032,132.0 236.0,134.24215724" fill="none" stroke="#000000" stroke-width="0.505333019938"/>
	<path d="M 236.0,134.24215724 C 236.0,134.24215724 241.0,136.566673281 245.0,137.333833143" fill="none" stroke="#000000" stroke-width="0.505333019938"/>
	<path d="M 245.0,137.333833143 C 245.0,137.333833143 250.0,138.569366979 254.0,139.566580129" fill="none" stroke="#000000" stroke-width="0.505333019938"/>
	<path d="M 254.0,139.566580129 C 254.0,139.566580129 259.0,140.101030439 262.874620902,141.0" fill="none" stroke="#000000" stroke-width="0.505333019938"/>
	<path d="M 262.874620902,141.0 C 262.874620902,141.0 268.0,141.318609298 272.0,141.325744935" fill="none" stroke="#000000" stroke-width="0.505333019938"/>
	<path d="M 272.0,141.325744935 C 272.0,141.325744935 276.19113571,141.0 281.0,140.299714429" fill="none" stroke="#000000" stroke-width="0.505333019938"/>
	<path d="M 281.0,140.299714429 C 281.0,140.299714429 286.0,139.081803415 283.322495855,119.0" fill="none" stroke="#000000" stroke-width="0.505333019938"/>
	<path d="M 283.322495855,119.0 C 283.322495855,119.0 275.102915797,94.0 227.0,77.9244129516" fill="none" stroke="#000000" stroke-width="0.505333019938"/>
	<path d="M 295.0,77.9024056652 C 295.0,77.9024056652 290.0,78.6813906851 286.0,78.6813907019" fill="none" stroke="#000000" stroke-width="0.505333019938"/>
	<path d="M 286.0,78.6813907019 C 286.0,78.6813907019 283.0,78.6813934003 279.0,79.4384619267" fill="none" stroke="#000000" stroke-width="0.505333019938"/>
	<path d="M 279.0,79.4384619267 C 279.0,79.4384619267 275.924529592,81.0 275.900284641,87.0" fill="none" stroke="#000000" stroke-width="0.505333019938"/>
	<path d="M 275.900284641,87.0 C 275.900284641,87.0 277.698931144,93.0 279.0,97.2078927133" fill="none" stroke="#000000" stroke-width="0.505333019938"/>
	<path d="M 279.0,97.2078927133 C 279.0,97.2078927133 280.898086753,103.0 282.660024734,107.0" fill="none" stroke="#000000" stroke-width="0.505333019938"/>
	<path d="M 282.660024734,107.0 C 282.660024734,107.0 283.675142605,111.0 284.885289946,115.0" fill="none" stroke="#000000" stroke-width="0.505333019938"/>
	<path d="M 284.885289946,115.0 C 284.885289946,115.0 286.657269836,119.0 287.65787682,123.0" fill="none" stroke="#000000" stroke-width="0.505333019938"/>
	<path d="M 287.65787682,123.0 C 287.65787682,123.0 288.63993038,127.0 289.422880659,130.0" fill="none" stroke="#000000" stroke-width="0.505333019938"/>
	<path d="M 289.422880659,130.0 C 289.422880659,130.0 290.656444043,134.0 292.0,137.365100375" fill="none" stroke="#000000" stroke-width="0.505333019938"/>
	<path d="M 292.0,137.365100375 C 292.0,137.365100375 293.861151549,142.0 296.406612599,145.0" fill="none" stroke="#000000" stroke-width="0.505333019938"/>
	<path d="M 296.406612599,145.0 C 296.406612599,145.0 298.722670291,148.0 301.898693207,152.0" fill="none" stroke="#000000" stroke-width="0.505333019938"/>
	<path d="M 301.898693207,152.0 C 301.898693207,152.0 304.0,154.120314675 311.0,154.879953653" fill="none" stroke="#000000" stroke-width="0.505333019938"/>
	<path d="M 311.0,154.879953653 C 311.0,154.879953653 317.0,150.695819111 325.0,147.101866385" fill="none" stroke="#000000" stroke-width="0.505333019938"/>
	<path d="M 325.0,147.101866385 C 325.0,147.101866385 332.0,143.139254512 336.319604082,132.0" fill="none" stroke="#000000" stroke-width="0.505333019938"/>
	<path d="M 336.319604082,132.0 C 336.319604082,132.0 327.0,93.8081842981 295.0,77.9024056652" fill="none" stroke="#000000" stroke-width="0.505333019938"/>
	<path d="M 379.0,80.9304483525 C 379.0,80.9304483525 374.979056003,82.0 374.0,86.1796062808" fill="none" stroke="#000000" stroke-width="0.505333019938"/>
	<path d="M 374.0,86.1796062808 C 374.0,86.1796062808 374.681393121,91.0 375.0,94.1952391466" fill="none" stroke="#000000" stroke-width="0.505333019938"/>
	<path d="M 375.0,94.1952391466 C 375.0,94.1952391466 376.0,98.1952516747 376.897513103,103.0" fill="none" stroke="#000000" stroke-width="0.505333019938"/>
	<path d="M 376.897513103,103.0 C 376.897513103,103.0 377.896477307,106.0 379.0,109.195697862" fill="none" stroke="#000000" stroke-width="0.505333019938"/>
	<path d="M 379.0,109.195697862 C 379.0,109.195697862 381.411758098,113.0 382.678114878,117.0" fill="none" stroke="#000000" stroke-width="0.505333019938"/>
	<path d="M 382.678114878,117.0 C 382.678114878,117.0 384.438569845,120.0 386.0,123.144637603" fill="none" stroke="#000000" stroke-width="0.505333019938"/>
	<path d="M 386.0,123.144637603 C 386.0,123.144637603 388.720802661,127.0 390.466522025,130.0" fill="none" stroke="#000000" stroke-width="0.505333019938"/>
	<path d="M 390.466522025,130.0 C 390.466522025,130.0 392.902340253,134.0 395.0,136.081167186" fill="none" stroke="#000000" stroke-width="0.505333019938"/>
	<path d="M 395.0,136.081167186 C 395.0,136.081167186 400.0,136.10224752 407.0,128.202279062" fill="none" stroke="#000000" stroke-width="0.505333019938"/>
	<path d="M 407.0,128.202279062 C 407.0,128.202279062 412.565388001,114.0 416.0,102.1955368" fill="none" stroke="#000000" stroke-width="0.505333019938"/>
	<path d="M 416.0,102.1955368 C 416.0,102.1955368 418.300629096,94.0 379.0,80.9304483525" fill="none" stroke="#000000" stroke-width="0.505333019938"/>
	<path d="M 467.0,99.9285333918 C 467.0,99.9285333918 464.681713904,104.0 464.0,107.805832901" fill="none" stroke="#000000" stroke-width="0.505333019938"/>
	<path d="M 464.0,107.805832901 C 464.0,107.805832901 463.681393333,111.0 463.659688306,115.0" fill="none" stroke="#000000" stroke-width="0.505333019938"/>
	<path d="M 463.659688306,115.0 C 463.659688306,115.0 462.680514187,119.0 462.664933999,123.0" fill="none" stroke="#000000" stroke-width="0.505333019938"/>
	<path d="M 462.664933999,123.0 C 462.664933999,123.0 462.65759108,126.0 462.614654964,130.0" fill="none" stroke="#000000" stroke-width="0.505333019938"/>
	<path d="M 462.614654964,130.0 C 462.614654964,130.0 462.419905107,134.0 461.611777159,138.0" fill="none" stroke="#000000" stroke-width="0.505333019938"/>
	<path d="M 461.611777159,138.0 C 461.611777159,138.0 461.619795381,141.0 463.0,144.243322103" fill="none" stroke="#000000" stroke-width="0.505333019938"/>
	<path d="M 463.0,144.243322103 C 463.0,144.243322103 469.0,146.575132964 473.0,148.569857081" fill="none" stroke="#000000" stroke-width="0.505333019938"/>
	<path d="M 473.0,148.569857081 C 473.0,148.569857081 478.0,150.361156981 482.0,151.793796191" fill="none" stroke="#000000" stroke-width="0.505333019938"/>
	<path d="M 482.0,151.793796191 C 482.0,151.793796191 488.0,152.607219726 491.0,154.342485397" fill="none" stroke="#000000" stroke-width="0.505333019938"/>
	<path d="M 491.0,154.342485397 C 491.0,154.342485397 496.0,155.342042734 500.0,156.604345993" fill="none" stroke="#000000" stroke-width="0.505333019938"/>
	<path d="M 500.0,156.604345993 C 500.0,156.604345993 504.0,157.34436207 508.333019938,151.0" fill="none" stroke="#000000" stroke-width="0.505333019938"/>
	<path d="M 131.0,154.745117102 C 131.0,154.745117102 135.445702106,155.0 138.0,157.398236288" fill="none" stroke="#000000" stroke-width="0.505333019938"/>
	<path d="M 138.0,157.398236288 C 138.0,157.398236288 140.678516942,160.0 143.690495822,163.0" fill="none" stroke="#000000" stroke-width="0.505333019938"/>
	<path d="M 143.690495822,163.0 C 143.690495822,163.0 146.635502072,165.0 149.0,167.274224104" fill="none" stroke="#000000" stroke-width="0.505333019938"/>
	<path d="M 149.0,167.274224104 C 149.0,167.274224104 152.0,169.359196248 154.737080497,172.0" fill="none" stroke="#000000" stroke-width="0.505333019938"/>
	<path d="M 154.737080497,172.0 C 154.737080497,172.0 157.0,174.291397455 159.766785063,177.0" fill="none" stroke="#000000" stroke-width="0.505333019938"/>
	<path d="M 159.766785063,177.0 C 159.766785063,177.0 162.0,179.668111012 166.0,180.315852719" fill="none" stroke="#000000" stroke-width="0.505333019938"/>
	<path d="M 166.0,180.315852719 C 166.0,180.315852719 168.4089075,182.0 171.791451903,184.0" fill="none" stroke="#000000" stroke-width="0.505333019938"/>
	<path d="M 171.791451903,184.0 C 171.791451903,184.0 174.801866784,186.0 178.0,187.588885069" fill="none" stroke="#000000" stroke-width="0.505333019938"/>
	<path d="M 178.0,187.588885069 C 178.0,187.588885069 181.0,189.343273664 184.213019054,191.0" fill="none" stroke="#000000" stroke-width="0.505333019938"/>
	<path d="M 184.213019054,191.0 C 184.213019054,191.0 186.0,192.933974193 189.084142205,193.0" fill="none" stroke="#000000" stroke-width="0.505333019938"/>
	<path d="M 189.084142205,193.0 C 189.084142205,193.0 167.0,185.247493811 131.0,154.745117102" fill="none" stroke="#000000" stroke-width="0.505333019938"/>
	<path d="M 311.0,184.938686622 C 311.0,184.938686622 314.0,184.912608643 311.0,184.938686622" fill="none" stroke="#000000" stroke-width="0.505333019938"/>
	<path d="M 504.0,191.956048853 C 504.0,191.956048853 506.0,193.544547155 502.0,196.79478015" fill="none" stroke="#000000" stroke-width="0.505333019938"/>
	<path d="M 502.0,196.79478015 C 502.0,196.79478015 499.0,199.644736071 496.0,202.414654071" fill="none" stroke="#000000" stroke-width="0.505333019938"/>
	<path d="M 496.0,202.414654071 C 496.0,202.414654071 493.65791599,205.0 493.560247672,209.0" fill="none" stroke="#000000" stroke-width="0.505333019938"/>
	<path d="M 493.560247672,209.0 C 493.560247672,209.0 492.0,212.055063606 487.708976896,203.0" fill="none" stroke="#000000" stroke-width="0.505333019938"/>
	<path d="M 487.708976896,203.0 C 487.708976896,203.0 484.0,201.041622852 504.0,191.956048853" fill="none" stroke="#000000" stroke-width="0.505333019938"/>
	<path d="M 470.0,194.921680212 C 470.0,194.921680212 475.0,194.954737769 470.0,194.921680212" fill="none" stroke="#000000" stroke-width="0.505333019938"/>
	<path d="M 443.0,197.546024284 C 443.0,197.546024284 445.281896907,198.0 443.0,197.546024284" fill="none" stroke="#000000" stroke-width="0.505333019938"/>
	<path d="M 477.0,197.810335649 C 477.0,197.810335649 480.0,197.792819801 477.0,197.810335649" fill="none" stroke="#000000" stroke-width="0.505333019938"/>
	<path d="M 201.0,204.929631534 C 201.0,204.929631534 205.0,204.93481932 201.0,204.929631534" fill="none" stroke="#000000" stroke-width="0.505333019938"/>
	<path d="M 271.0,204.707555157 C 271.0,204.707555157 274.220974276,205.0 271.0,204.707555157" fill="none" stroke="#000000" stroke-width="0.505333019938"/>
	<path d="M 306.0,205.977634283 C 306.0,205.977634283 311.0,205.92315036 306.0,205.977634283" fill="none" stroke="#000000" stroke-width="0.505333019938"/>
	<path d="M 204.0,207.928977756 C 204.0,207.928977756 208.0,207.959368996 204.0,207.928977756" fill="none" stroke="#000000" stroke-width="0.505333019938"/>
	<path d="M 275.0,207.929733755 C 275.0,207.929733755 278.0,207.955286314 275.0,207.929733755" fill="none" stroke="#000000" stroke-width="0.505333019938"/>
	<path d="M 294.0,207.985085045 C 294.0,207.985085045 298.0,207.949580601 301.0,207.927659461" fill="none" stroke="#000000" stroke-width="0.505333019938"/>
	<path d="M 301.0,207.927659461 C 301.0,207.927659461 297.0,209.072683578 294.0,207.985085045" fill="none" stroke="#000000" stroke-width="0.505333019938"/>
	<path d="M 418.0,207.963054815 C 418.0,207.963054815 424.0,207.949949499 418.0,207.963054815" fill="none" stroke="#000000" stroke-width="0.505333019938"/>
	<path d="M 206.0,210.957821009 C 206.0,210.957821009 210.0,210.935256116 206.0,210.957821009" fill="none" stroke="#000000" stroke-width="0.505333019938"/>
	<path d="M 279.0,210.968116432 C 279.0,210.968116432 284.0,210.902628792 287.0,210.921345867" fill="none" stroke="#000000" stroke-width="0.505333019938"/>
	<path d="M 287.0,210.921345867 C 287.0,210.921345867 291.0,210.914915751 279.0,210.968116432" fill="none" stroke="#000000" stroke-width="0.505333019938"/>
	<path d="M 431.0,210.967176551 C 431.0,210.967176551 436.0,210.740763209 431.0,210.967176551" fill="none" stroke="#000000" stroke-width="0.505333019938"/>
	<path d="M 210.0,213.898927007 C 210.0,213.898927007 215.0,214.518220641 218.0,217.168265199" fill="none" stroke="#000000" stroke-width="0.505333019938"/>
	<path d="M 218.0,217.168265199 C 218.0,217.168265199 221.109819048,220.0 210.0,213.898927007" fill="none" stroke="#000000" stroke-width="0.505333019938"/>
	<path d="M 280.0,216.880836395 C 280.0,216.880836395 280.760615973,220.0 280.0,216.880836395" fill="none" stroke="#000000" stroke-width="0.505333019938"/>
	<path d="M 328.0,219.819748268 C 328.0,219.819748268 330.713565834,221.0 328.0,219.819748268" fill="none" stroke="#000000" stroke-width="0.505333019938"/>
	<path d="M 221.0,223.748654097 C 221.0,223.748654097 225.0,223.94900597 221.0,223.748654097" fill="none" stroke="#000000" stroke-width="0.505333019938"/>
	<path d="M 223.0,226.959399021 C 223.0,226.959399021 227.0,226.921370368 223.0,226.959399021" fill="none" stroke="#000000" stroke-width="0.505333019938"/>
	<path d="M 439.0,226.959639114 C 439.0,226.959639114 443.0,226.93189787 439.0,226.959639114" fill="none" stroke="#000000" stroke-width="0.505333019938"/>
	<path d="M 450.0,226.992679077 C 450.0,226.992679077 454.0,226.953701285 458.0,226.949439518" fill="none" stroke="#000000" stroke-width="0.505333019938"/>
	<path d="M 458.0,226.949439518 C 458.0,226.949439518 461.0,226.94399138 450.0,226.992679077" fill="none" stroke="#000000" stroke-width="0.505333019938"/>
	<path d="M 474.0,229.966700534 C 474.0,229.966700534 478.0,229.943979519 482.0,229.927820986" fill="none" stroke="#000000" stroke-width="0.505333019938"/>
	<path d="M 482.0,229.927820986 C 482.0,229.927820986 485.0,229.926896603 488.0,229.906776618" fill="none" stroke="#000000" stroke-width="0.505333019938"/>
	<path d="M 488.0,229.906776618 C 488.0,229.906776618 491.0,229.923674728 474.0,229.966700534" fill="none" stroke="#000000" stroke-width="0.505333019938"/>
	<path d="M 336.0,235.919557284 C 336.0,235.919557284 340.0,238.924459715 336.0,235.919557284" fill="none" stroke="#000000" stroke-width="0.505333019938"/>
	<path d="M 498.0,241.913113975 C 498.0,241.913113975 495.979766827,246.0 502.0,246.333892599" fill="none" stroke="#000000" stroke-width="0.505333019938"/>
	<path d="M 502.0,246.333892599 C 502.0,246.333892599 506.0,246.32562526 498.0,241.913113975" fill="none" stroke="#000000" stroke-width="0.505333019938"/>
	<path d="M 340.0,242.836781156 C 340.0,242.836781156 343.0,242.946769715 340.0,242.836781156" fill="none" stroke="#000000" stroke-width="0.505333019938"/>
	<path d="M 375.0,244.903675306 C 375.0,244.903675306 379.0,246.318609278 375.0,244.903675306" fill="none" stroke="#000000" stroke-width="0.505333019938"/>
</svg>
